<svg xmlns="http://www.w3.org/2000/svg" xmlns:xlink="http://www.w3.org/1999/xlink" viewBox="0 0 114.25 38.25" fill="#fff" fill-rule="evenodd" stroke="#000" stroke-linecap="round" stroke-linejoin="round"><use xlink:href="#heroku" x="3.125" y="3.125"/><symbol id="heroku" overflow="visible"><g stroke="none" fill-rule="nonzero"><path d="M22.556 31.713H3.025A3.03 3.03 0 0 1 0 28.688V3.025A3.03 3.03 0 0 1 3.025 0h19.531a3.03 3.03 0 0 1 3.025 3.025v25.656a3.03 3.03 0 0 1-3.025 3.025z" fill="#6762a6"/><path d="M16.031 27.35V14.756s.813-3.012-10.087 1.231c-.019.063-.019-11.644-.019-11.644l3.563-.025v7.5s9.981-3.937 9.981 2.981v12.55h-3.437zm2.031-18.5h-3.781c1.363-1.663 2.594-4.513 2.594-4.513h3.906s-.669 1.856-2.719 4.513zM5.981 27.325v-7.169l3.587 3.587-3.587 3.587z"/><path d="M39.681 26.431V16.119c0-.725-.531-1.044-1.163-1.044a11.06 11.06 0 0 0-4.262.944v10.412H31.35V7.281h2.906v6.25c1.375-.5 3.025-.937 4.675-.937 2.637 0 3.625 1.625 3.625 3.85v10zm8.313-6.25c.094 3.462.775 4.144 2.906 4.144 1.669 0 3.563-.625 5.012-1.113l.481 2.188c-1.55.7-3.437 1.375-5.625 1.375-4.844 0-5.594-2.663-5.594-6.9 0-2.325.169-4.375.725-6.375 1.45-.625 3.394-.85 5.837-.85 3.975 0 5.188 2.206 5.188 6.063v1.475h-8.931zm3.75-5.113c-.875 0-2.25.025-3.387.25-.198.939-.302 1.896-.312 2.856h6.062c0-2.013-.362-3.1-2.35-3.1zm10.625.938v10.425h-2.906V14.718a16.81 16.81 0 0 1 6.731-1.862v2.419c-1.25.094-2.688.25-3.825.75zm11.5 10.75c-4.338 0-6.3-2.125-6.3-7 0-5.156 2.594-7.125 6.3-7.125 4.337 0 6.294 2.125 6.294 7 0 5.156-2.594 7.125-6.294 7.125zm0-11.687c-2.231 0-3.463 1.281-3.463 4.7 0 3.731 1.044 4.563 3.463 4.563 2.225 0 3.463-1.262 3.463-4.675 0-3.731-1.044-4.575-3.463-4.575zm20.313 11.356h-3.412c-.8-2.125-1.912-4.375-3.625-6.2h-1.65v6.2h-2.906V7.281h2.906v11h1.356c1.445-1.542 2.601-3.33 3.413-5.281h3.269c-1.112 2.25-2.544 4.238-4.144 5.863 1.829 2.35 3.396 4.892 4.675 7.581zm5.45.338c-2.638 0-3.625-1.625-3.625-3.85v-9.919h2.875v10.294c0 .725.531 1.044 1.162 1.044a11.75 11.75 0 0 0 4.406-.944V12.994h2.906v11.675c-3.437 1.887-6.081 2.106-7.725 2.106z" fill="#6762a6"/></g></symbol></svg>