<svg xmlns="http://www.w3.org/2000/svg" xmlns:xlink="http://www.w3.org/1999/xlink" viewBox="0 0 109.168 17.168" fill="#fff" fill-rule="evenodd" stroke="#000" stroke-linecap="round" stroke-linejoin="round"><use xlink:href="#svn" x="1.084" y="1.084"/><symbol id="svn" overflow="visible"><g stroke="none"><path d="M0 .026h106.802v14.598H0z"/><g fill-rule="nonzero"><path d="M24.965 4.405c-.374-.008-.747.053-1.099.18-.303.13-.542.308-.709.533s-.243.499-.243.791c0 .317.078.574.217.785a1.56 1.56 0 0 0 .624.494c.267.121.596.23.991.319l.698.184a1.15 1.15 0 0 1 .425.258c.115.113.165.256.165.438 0 .226-.1.412-.303.564a1.3 1.3 0 0 1-.793.23c-.243 0-.434-.037-.579-.113-.138-.061-.256-.161-.34-.286-.096-.133-.174-.278-.232-.431-.054-.143-.121-.26-.204-.325s-.173-.113-.295-.113c-.132-.011-.262.036-.357.129s-.144.222-.135.355c0 .226.08.455.232.707s.362.434.611.585c.343.217.78.293 1.322.293.449 0 .837-.065 1.155-.217a1.65 1.65 0 0 0 .755-.611l.022-.05.035-.043.028-.056.043-.102.022-.056.017-.05.011-.05.017-.056.017-.061.007-.05.017-.061.007-.061v-.05l.007-.061v-.065c0-.271-.05-.499-.141-.685s-.217-.347-.412-.466-.386-.225-.65-.308l-.839-.238-.52-.134c-.108-.037-.212-.082-.312-.134s-.217-.126-.256-.208-.091-.169-.091-.275c0-.173.091-.325.267-.449s.403-.184.685-.184c.312 0 .535.054.681.173a1.45 1.45 0 0 1 .358.47c.076.143.143.243.204.304s.16.095.288.095a.48.48 0 0 0 .351-.156.47.47 0 0 0 .137-.343c0-.143-.037-.286-.113-.438-.087-.168-.209-.315-.358-.431-.152-.137-.358-.247-.601-.332a2.71 2.71 0 0 0-.867-.117zm7.095 0c-.16 0-.297.05-.397.163s-.152.273-.152.499v2.591a3.55 3.55 0 0 0 .141 1.049c.075.271.217.518.414.718a1.63 1.63 0 0 0 .741.412c.303.08.661.134 1.071.134.358 0 .663-.035.932-.117a1.91 1.91 0 0 0 .681-.392c.238-.21.39-.468.477-.746s.119-.633.119-1.054V5.064c0-.226-.043-.395-.152-.499a.55.55 0 0 0-.403-.163c-.169 0-.297.05-.397.163s-.147.273-.147.499v2.682c0 .46-.087.806-.267 1.032s-.483.336-.917.336c-.303 0-.542-.056-.72-.169s-.288-.26-.358-.47a2.32 2.32 0 0 1-.108-.752V5.064c0-.226-.05-.386-.141-.499-.108-.113-.247-.163-.412-.163zm9.305.087c-.243 0-.412.052-.516.156s-.152.277-.152.509v4.05c0 .234.043.403.152.516s.273.156.516.156h1.654a6.01 6.01 0 0 0 .765-.043 2.18 2.18 0 0 0 .564-.145c.262-.108.484-.294.635-.533a1.43 1.43 0 0 0 .232-.813c0-.655-.356-1.093-1.071-1.318.548-.256.815-.65.815-1.184 0-.158-.026-.303-.08-.449s-.13-.267-.228-.39a1.16 1.16 0 0 0-.34-.286c-.152-.091-.321-.152-.509-.18s-.421-.05-.681-.05zm.434.813h.902c.395 0 .698.043.895.134s.288.273.288.542a.62.62 0 0 1-.091.343c-.07.142-.192.25-.34.304s-.369.074-.64.074h-1.014zm0 2.177h1.149c.39 0 .676.056.867.184s.288.325.288.594c0 .536-.369.809-1.117.809h-1.192z" fill="#809cc8"/><path d="M49.765 4.406a.52.52 0 0 0-.379.145c-.1.108-.152.217-.152.347.002.061.009.121.022.18a1.14 1.14 0 0 0 .065.195l.065.191 1.431 3.876c.044.113.099.222.165.325a.89.89 0 0 0 .249.223c.108.061.228.087.379.087s.267-.022.375-.087a.89.89 0 0 0 .249-.223c.065-.102.118-.211.158-.325l.141-.382 1.383-3.713c.022-.061.043-.119.052-.18s.035-.122.035-.174c0-.082-.035-.16-.08-.239a.51.51 0 0 0-.182-.184c-.074-.043-.167-.065-.267-.065-.109-.006-.217.025-.306.089-.069.061-.121.13-.158.195l-.141.403-1.236 3.642-1.229-3.62-.217-.551c-.054-.121-.212-.163-.403-.163zm27.842 0c-.418 0-.785.059-1.088.18a1.65 1.65 0 0 0-.715.533c-.169.225-.243.499-.243.791a1.3 1.3 0 0 0 .238.785c.152.21.362.373.65.494.315.14.643.247.98.319l.702.184c.174.061.319.145.425.26a.62.62 0 0 1 .169.438c0 .225-.109.412-.303.564s-.473.23-.802.23c-.243 0-.434-.037-.579-.113s-.26-.165-.347-.286-.148-.26-.217-.434c-.047-.122-.118-.233-.21-.325-.087-.076-.18-.113-.295-.113-.145 0-.267.048-.358.145s-.137.202-.137.336c0 .225.074.455.228.707.153.238.358.437.6.583.347.217.791.293 1.331.293a2.75 2.75 0 0 0 1.162-.219c.325-.143.574-.347.741-.611l.035-.05.022-.043.035-.056.043-.102.022-.056.011-.05.022-.05.017-.056.007-.061.017-.05.007-.061.011-.061v-.05l.006-.061v-.065c0-.271-.05-.499-.141-.685s-.217-.347-.412-.466-.377-.225-.65-.308l-.832-.239-.533-.134a2.23 2.23 0 0 1-.312-.134c-.1-.052-.189-.126-.249-.208a.44.44 0 0 1-.087-.275c0-.173.087-.325.26-.449s.403-.184.694-.184c.303 0 .531.054.668.173a1.45 1.45 0 0 1 .358.47 1.08 1.08 0 0 0 .215.304c.061.065.163.095.282.095.137 0 .249-.052.34-.156s.147-.217.147-.343c0-.143-.043-.286-.119-.438a1.37 1.37 0 0 0-.347-.434c-.181-.147-.389-.26-.611-.332a2.71 2.71 0 0 0-.867-.117zm7.132 0c-.16 0-.293.05-.39.163s-.152.273-.152.499v4.249c0 .217.054.382.152.494s.232.169.39.169c.151.005.298-.051.408-.156.1-.113.147-.282.147-.505V5.069c0-.226-.048-.395-.147-.499s-.249-.163-.408-.163zm7.605 0c-.412 0-.78.061-1.11.195a2.17 2.17 0 0 0-.832.551c-.233.256-.41.558-.52.887a3.59 3.59 0 0 0-.173 1.138c-.006.382.05.763.165 1.127a2.53 2.53 0 0 0 .509.898c.221.247.509.434.845.572.365.14.754.209 1.145.202.434 0 .802-.069 1.138-.195a2.16 2.16 0 0 0 .839-.572c.229-.258.402-.559.51-.887.115-.338.169-.724.169-1.138 0-.564-.108-1.054-.312-1.474a2.21 2.21 0 0 0-.917-.965l-.074-.039-.08-.035-.087-.039-.08-.039-.087-.028-.087-.022-.091-.035-.087-.022-.091-.011-.095-.022-.095-.017-.095-.006-.095-.017h-.102l-.108-.006zm7.713 0c-.13 0-.245.026-.351.102s-.195.163-.217.275c-.043.098-.056.234-.056.412V9.35c0 .204.043.36.141.466s.233.163.375.156c.152 0 .275-.052.375-.156s.141-.254.141-.466V6.185l2.081 3.148.173.247c.061.082.124.158.195.217a.76.76 0 0 0 .221.134c.076.022.167.039.267.039.395 0 .594-.232.594-.707V5.03c0-.21-.043-.369-.137-.477s-.217-.145-.375-.145a.46.46 0 0 0-.362.145c-.091.098-.137.267-.137.477v3.208l-2.124-3.18-.173-.269-.165-.212c-.054-.052-.119-.093-.186-.124s-.156-.043-.256-.043zm-41.237.087c-.108.009-.195.033-.271.065a.45.45 0 0 0-.221.217.86.86 0 0 0-.074.382v4.05c0 .234.052.412.158.516s.286.156.52.156h3.003c.167 0 .295-.048.386-.124s.13-.18.13-.308-.039-.232-.13-.314-.217-.113-.386-.113h-2.573V7.475h2.283c.173 0 .303-.037.379-.113s.119-.182.119-.303-.035-.221-.119-.297-.212-.113-.379-.113h-2.283V5.333h2.482c.182 0 .299-.037.39-.113s.13-.18.13-.308a.38.38 0 0 0-.13-.297c-.082-.076-.208-.117-.39-.117h-2.909c-.039 0-.078-.002-.113 0zm8.602 0c-.243 0-.412.052-.52.156s-.158.277-.158.51v4.151c0 .217.048.382.148.494a.51.51 0 0 0 .407.169.53.53 0 0 0 .397-.156c.1-.104.152-.282.152-.505V7.577h.386a1.32 1.32 0 0 1 .488.078c.13.052.249.143.379.286.161.188.306.391.431.605l.434.737.243.39c.061.082.13.158.217.217s.189.087.316.087c.1 0 .195-.017.278-.061s.137-.087.182-.163a.39.39 0 0 0 .065-.212c0-.074-.037-.217-.113-.375a4.96 4.96 0 0 0-.329-.611 3.83 3.83 0 0 0-.477-.646c-.184-.204-.364-.347-.555-.46.464-.098.802-.264 1.032-.505s.347-.564.347-.965c.002-.19-.033-.378-.102-.555a1.27 1.27 0 0 0-.295-.46 1.37 1.37 0 0 0-.46-.308 1.71 1.71 0 0 0-.47-.13l-.65-.028zm24.922.768c.29-.007.575.071.822.223.243.143.423.362.542.657l.022.05.043.123.022.05.017.061.017.056.011.074.011.056v.134l.006.074.007.065.011.065v.074l.007.065v.078c0 .429-.072.789-.217 1.084-.117.265-.31.49-.555.646a1.5 1.5 0 0 1-.78.212c-.417-.001-.814-.178-1.093-.488-.137-.158-.254-.368-.329-.618s-.119-.527-.119-.837a2.84 2.84 0 0 1 .119-.83c.076-.239.186-.442.325-.601.129-.156.292-.281.477-.364.191-.082.39-.117.611-.117zm-24.497.043h1.019c.373 0 .629.026.759.078a.7.7 0 0 1 .317.26.69.69 0 0 1 .119.399c0 .217-.048.347-.147.434s-.239.184-.418.23a2.71 2.71 0 0 1-.663.078h-.986z" fill="#999"/><path d="M21.36 1.648v.906h84.07v-.906zm0 10.718v.906h84.07v-.906zM0 .026v5.307c2.723-1.155 6.365-2.298 10.939-3.469L19.448 0zm20.146 1.127l-7.154 1.383c-2.4.603-4.329 1.214-5.788 1.832S5.062 5.452 5.157 5.851c.087.336.698.488 1.843.434l2.862-.217 5.116-.507 5.155-.442zm-5.897 6.703l-2.432.13-3.865.347-5.962.585L0 9.055v4.286L8.509 11.7c2.486-.622 4.401-1.231 5.74-1.821s1.951-1.084 1.869-1.492c-.087-.347-.715-.525-1.869-.535zm5.897 1.504c-2.758 1.08-6.178 2.14-10.269 3.165L0 14.585v.035h20.146zm-19.305.9c.08.002.137.017.174.056.054.054.065.143.035.217s-.126.13-.217.115-.173-.108-.165-.206.08-.167.173-.178zm.715 0c.043.002.087.011.121.043.064.054.087.143.056.221s-.108.137-.217.13c-.072-.002-.143-.048-.173-.115-.039-.087-.007-.204.078-.249.032-.022.069-.028.108-.028zm-.685 1.262c.087-.002.16.056.186.137s-.015.217-.1.217-.217.015-.249-.065-.048-.217.028-.256c.037-.033.087-.052.137-.05zm.685 0c.065-.004.13.039.165.093.051.086.03.196-.05.256s-.206.052-.271-.028-.065-.217.022-.277c.037-.03.087-.043.137-.043z" fill="#809cc8"/></g></g></symbol></svg>